# xmcd
# Copyright (C) 1995-1998 Ti Kan
#
# Track frame offsets:
#       150
#       28455
#       44425
#       67612
#       82460
#       98357
#       111115
#       128150
#       140677
#
# Disc length: 2090 seconds
#
# Revision: 0
# Processed by: cddbd v1.5.2PL0 Copyright (c) Steve Scherf et al.
# Submitted via: CD-Import v1.0
#
DISCID=7b082809
DTITLE=Roman Weissert - Romanshorn
DYEAR=1997
DGENRE=
TTITLE0=Some Elephanz
TTITLE1=Samson
TTITLE2=Bülbüls Blowjob
TTITLE3=Matsur
TTITLE4=Ciuta!
TTITLE5=Stomach and Bread
TTITLE6=V.q. Patta
TTITLE7=Baab
TTITLE8=The Litzer
EXTD=
EXTT0=
EXTT1=
EXTT2=
EXTT3=
EXTT4=
EXTT5=
EXTT6=
EXTT7=
EXTT8=
PLAYORDER=
